<?xml version="1.0" standalone="no"?>
<!DOCTYPE svg PUBLIC "-//W3C//DTD SVG 20010904//EN"
 "http://www.w3.org/TR/2001/REC-SVG-20010904/DTD/svg10.dtd">
<svg version="1.0" xmlns="http://www.w3.org/2000/svg"
 width="106.000000pt" height="124.000000pt" viewBox="0 0 106.000000 124.000000"
 preserveAspectRatio="xMidYMid meet">

<g transform="translate(0.000000,124.000000) scale(0.100000,-0.100000)"
fill="#000000" stroke="none">
<path d="M1 1008 c1 -128 4 -219 6 -203 26 194 193 371 396 421 47 11 30 12
-175 13 l-228 1 1 -232z"/>
<path d="M664 1224 c158 -38 309 -170 361 -314 9 -25 20 -63 25 -85 5 -26 8
40 9 188 l1 227 -227 -1 c-219 -1 -226 -1 -169 -15z"/>
<path d="M82 629 c4 -57 11 -79 35 -112 41 -59 94 -87 166 -87 102 0 170 53
199 155 13 47 16 50 50 53 36 3 36 3 47 -49 22 -102 93 -159 198 -159 72 0
125 28 166 87 24 33 31 55 35 112 l5 71 -453 0 -453 0 5 -71z"/>
<path d="M1 223 l-1 -223 128 0 127 0 -3 119 -3 119 -41 6 c-95 15 -170 81
-199 176 -4 14 -8 -75 -8 -197z"/>
<path d="M1050 425 c0 -25 -36 -88 -67 -116 -37 -35 -82 -57 -131 -65 l-41 -6
-3 -119 -3 -119 128 0 127 0 0 220 c0 121 -2 220 -5 220 -3 0 -5 -7 -5 -15z"/>
<path d="M496 346 c-14 -19 -26 -44 -26 -55 0 -27 34 -61 60 -61 24 0 60 34
60 57 0 19 -48 93 -60 93 -4 0 -19 -15 -34 -34z"/>
<path d="M335 108 c-2 -7 -5 -34 -7 -60 l-3 -48 45 0 45 0 -4 48 c-4 55 -15
72 -48 72 -13 0 -25 -6 -28 -12z"/>
<path d="M502 108 c-5 -7 -11 -34 -13 -60 l-4 -48 45 0 45 0 -4 48 c-4 52 -15
72 -41 72 -10 0 -22 -6 -28 -12z"/>
<path d="M663 108 c-6 -7 -12 -34 -14 -60 l-4 -48 45 0 45 0 -5 58 c-5 52 -7
57 -31 60 -14 2 -30 -3 -36 -10z"/>
</g>
</svg>
